<svg width="39" height="30" viewBox="0 0 39 30" fill="none" xmlns="http://www.w3.org/2000/svg">
<path d="M14.9849 12.006H0V17.9983H14.9849V12.006Z" fill="#062F87"/>
<path d="M17.994 23.9991V29.9957H6.00086C5.21302 29.9962 4.43279 29.8416 3.70476 29.5405C2.97673 29.2394 2.31516 28.7977 1.75787 28.2409C1.20059 27.684 0.758497 27.0227 0.456873 26.2949C0.155248 25.5671 -2.04176e-07 24.787 0 23.9991H17.994Z" fill="#062F87"/>
<path d="M38.9711 0V6.00086H29.905C29.1579 6.01761 28.4435 6.31062 27.8997 6.82329C27.3559 7.33596 27.0214 8.03193 26.9607 8.7768C26.9607 8.85019 26.9607 8.92359 26.9607 8.99698C26.9607 9.07037 26.9607 9.14808 26.9607 9.22147V17.9983C25.3753 17.9937 23.8565 17.3601 22.7378 16.2366C21.6191 15.1131 20.9921 13.5915 20.9944 12.006V6.0095C20.9921 5.22222 21.145 4.44222 21.4443 3.71406C21.7437 2.9859 22.1835 2.32385 22.7388 1.76576C23.2941 1.20767 23.9539 0.764474 24.6805 0.461496C25.4072 0.158518 26.1864 0.00169833 26.9737 0L38.9711 0Z" fill="#062F87"/>
<path d="M20.9944 1.56871e-06C19.9681 0.597646 19.1414 1.48538 18.6183 2.55157C18.0952 3.61777 17.899 4.81483 18.0544 5.99223H0V5.95769C0.00228847 4.37607 0.632484 2.86008 1.75207 1.74292C2.87166 0.625758 4.38902 -0.00114453 5.97064 1.56871e-06H20.9944Z" fill="#062F87"/>
<path d="M26.9737 8.78543V9.21715C26.9737 9.14376 26.9737 9.07036 26.9737 8.99265C26.9737 8.91495 26.9694 8.85882 26.9737 8.78543Z" fill="#062F87"/>
<path d="M38.9711 17.9983V23.9991C38.9716 24.787 38.817 25.5672 38.5159 26.2952C38.2147 27.0233 37.7731 27.6848 37.2163 28.2421C36.6594 28.7994 35.9981 29.2415 35.2703 29.5431C34.5425 29.8448 33.7624 30 32.9745 30H20.9944V23.9991H30.0604C30.84 23.9668 31.5769 23.6342 32.1168 23.0709C32.6568 22.5077 32.9579 21.7574 32.9573 20.9771V12.006C33.7457 12.0043 34.5267 12.158 35.2557 12.4583C35.9847 12.7586 36.6473 13.1995 37.2058 13.756C37.7643 14.3125 38.2077 14.9736 38.5106 15.7015C38.8135 16.4294 38.9699 17.2099 38.9711 17.9983V17.9983Z" fill="#062F87"/>
</svg>
